<?xml version="1.0" encoding="UTF-8" standalone="no"?>
<?xml-stylesheet type="text/css" href="css/svg.css" ?>
<svg id="drawing" xmlns:dc="http://purl.org/dc/elements/1.1/" xmlns:cc="http://creativecommons.org/ns#" xmlns:rdf="http://www.w3.org/1999/02/22-rdf-syntax-ns#" xmlns:svg="http://www.w3.org/2000/svg" xmlns="http://www.w3.org/2000/svg" xmlns:sodipodi="http://sodipodi.sourceforge.net/DTD/sodipodi-0.dtd"
    xmlns:inkscape="http://www.inkscape.org/namespaces/inkscape" version="1.1" viewBox="0 0 1440 830"  inkscape:version="0.91 r13725" sodipodi:docname="base2.svg">

    <g id="Lines">
        <path id="i00" class="Line i s00 " d="M -5.0000 401.30 L 1445.0 401.30" />
        <path id="b01" class="Line b s01 " d="M 730.36 835.00 L 730.36 -5.0000" />
        <path id="i01aw" class="Line i s01 aw" d="M 671.75 835.00 L 671.75 -5.0000" />
        <path id="i01ae" class="Line i s01 ae" d="M 788.96 835.00 L 788.96 -5.0000" />
        <path id="i00an" class="Line i s00 an" d="M -5.0000 284.10 L 1445.0 284.10" />
        <path id="i00as" class="Line i s00 as" d="M -5.0000 518.50 L 1445.0 518.50" />
        <path id="i02ae" class="Line i s02 ae" d="M 1039.4 835.00 L 554.38 -5.0000" />
        <path id="i02aw" class="Line i s02 aw" d="M 421.36 835.00 L 906.33 -5.0000" />
        <path id="i02bw" class="Line i s02 bw" d="M 922.15 835.00 L 437.18 -5.0000" />
        <path id="i02be" class="Line i s02 be" d="M 538.56 835.00 L 1023.5 -5.0000" />
        <path id="i02cn" class="Line i s02 cn" d="M -5.0000 299.80 L 1445.0 299.80" />
        <path id="i02cs" class="Line i s02 cs" d="M -5.0000 502.80 L 1445.0 502.80" />
        <path id="i02dw" class="Line i s02 dw" d="M 304.16 835.00 L 789.13 -5.0000" />
        <path id="i02ew" class="Line i s02 ew" d="M 804.95 835.00 L 319.97 -5.0000" />
        <path id="i02ee" class="Line i s02 ee" d="M 655.76 835.00 L 1140.7 -5.0000" />
        <path id="i02de" class="Line i s02 de" d="M 1156.6 835.00 L 671.58 -5.0000" />
        <path id="i02fn" class="Line i s02 fn" d="M -5.0000 198.30 L 1445.0 198.30" />
        <path id="i02fs" class="Line i s02 fs" d="M -5.0000 604.30 L 1445.0 604.30" />
        <path id="i03aw" class="Line i s03 aw" d="M 947.20 835.00 L 527.20 -5.0000" />
        <path id="i03ae" class="Line i s03 ae" d="M 513.51 835.00 L 933.51 -5.0000" />
        <path id="i04aw" class="Line i s04 aw" d="M -5.0000 792.03 L 1375.5 -5.0000" />
        <path id="i04ae" class="Line i s04 ae" d="M 85.221 -5.0000 L 1445.0 780.07" />
        <path id="i04bw" class="Line i s04 bw" d="M 37.770 835.00 L 1445.0 22.535" />
        <path id="i04be" class="Line i s04 be" d="M -5.0000 10.578 L 1422.9 835.00" />
        <path id="i05aw" class="Line i s05 aw" d="M 238.06 835.00 L 1078.1 -5.0000" />
        <path id="i05bw" class="Line i s05 bw" d="M 355.26 835.00 L 1195.3 -5.0000" />
        <path id="i05ae" class="Line i s05 ae" d="M 1222.7 835.00 L 382.65 -5.0000" />
        <path id="i05be" class="Line i s05 be" d="M 1105.5 835.00 L 265.45 -5.0000" />
        <path id="i05cw" class="Line i s05 cw" d="M 296.66 835.00 L 1136.7 -5.0000" />
        <path id="i05ce" class="Line i s05 ce" d="M 1164.1 835.00 L 324.05 -5.0000" />
        <path id="i01cw" class="Line i s01 cw" d="M 554.55 835.00 L 554.55 -5.0000" />
        <path id="i01ce" class="Line i s01 ce" d="M 906.16 835.00 L 906.16 -5.0000" />
        <path id="i05dw" class="Line i s05 dw" d="M 3.6504 835.00 L 843.65 -5.0000" />
        <path id="i05de" class="Line i s05 de" d="M 1445.0 822.94 L 617.06 -5.0000" />
        <path id="i05ew" class="Line i s05 ew" d="M 871.05 835.00 L 31.046 -5.0000" />
        <path id="i05ee" class="Line i s05 ee" d="M 589.66 835.00 L 1429.7 -5.0000" />
    </g>
    <g id="Circle">
        <path id="c00aw" class="Circle c s00 aw" d="M 788.96 401.30 C 788.96 466.03 736.48 518.50 671.75 518.50 C 607.02 518.50 554.55 466.03 554.55 401.30 C 554.55 336.57 607.02 284.10 671.75 284.10 C 736.48 284.10 788.96 336.57 788.96 401.30 z" />
        <path id="c00ae" class="Circle c s00 ae" d="M 906.16 401.30 C 906.16 466.03 853.69 518.50 788.96 518.50 C 724.23 518.50 671.75 466.03 671.75 401.30 C 671.75 336.57 724.23 284.10 788.96 284.10 C 853.69 284.10 906.16 336.57 906.16 401.30 z" />
        <path id="c00bw" class="Circle c s00 bw" d="M 906.16 401.30 C 906.16 530.76 801.21 635.71 671.75 635.71 C 542.30 635.71 437.35 530.76 437.35 401.30 C 437.35 271.84 542.30 166.90 671.75 166.90 C 801.21 166.90 906.16 271.84 906.16 401.30 z" />
        <path id="c00be" class="Circle c s00 be" d="M 1023.4 401.30 C 1023.4 530.76 918.42 635.71 788.96 635.71 C 659.50 635.71 554.55 530.76 554.55 401.30 C 554.55 271.84 659.50 166.90 788.96 166.90 C 918.42 166.90 1023.4 271.84 1023.4 401.30 z" />
        <path id="c00cw" class="Circle c s00 cw" d="M 788.96 401.30 C 788.96 530.76 684.01 635.71 554.55 635.71 C 425.09 635.71 320.15 530.76 320.15 401.30 C 320.15 271.84 425.09 166.90 554.55 166.90 C 684.01 166.90 788.96 271.84 788.96 401.30 z" />
        <path id="c00ce" class="Circle c s00 ce" d="M 1140.6 401.30 C 1140.6 530.76 1035.6 635.71 906.16 635.71 C 776.70 635.71 671.75 530.76 671.75 401.30 C 671.75 271.84 776.70 166.90 906.16 166.90 C 1035.6 166.90 1140.6 271.84 1140.6 401.30 z" />
        <path id="c03a" class="Circle c s03 a" d="M 861.39 401.30 C 861.39 473.67 802.72 532.34 730.36 532.34 C 657.99 532.34 599.32 473.67 599.32 401.30 C 599.32 328.93 657.99 270.27 730.36 270.27 C 802.72 270.27 861.39 328.93 861.39 401.30 z" />
        <path id="g00aw" class="Circle g s00 aw" d="M 744.19 401.30 C 744.19 441.31 711.76 473.74 671.75 473.74 C 631.75 473.74 599.32 441.31 599.32 401.30 C 599.32 361.30 631.75 328.87 671.75 328.87 C 711.76 328.87 744.19 361.30 744.19 401.30 z" />
        <path id="g00ae" class="Circle g s00 ae" d="M 861.39 401.30 C 861.39 441.31 828.96 473.74 788.96 473.74 C 748.95 473.74 716.52 441.31 716.52 401.30 C 716.52 361.30 748.95 328.87 788.96 328.87 C 828.96 328.87 861.39 361.30 861.39 401.30 z" />
        <path id="c00d" class="Circle c s00 d" d="M 788.96 401.30 C 788.96 433.67 762.72 459.90 730.36 459.90 C 697.99 459.90 671.75 433.67 671.75 401.30 C 671.75 368.94 697.99 342.70 730.36 342.70 C 762.72 342.70 788.96 368.94 788.96 401.30 z" />
        <path id="c00ew" class="Circle c s00 ew" d="M 730.36 401.30 C 730.36 433.67 704.12 459.90 671.75 459.90 C 639.39 459.90 613.15 433.67 613.15 401.30 C 613.15 368.94 639.39 342.70 671.75 342.70 C 704.12 342.70 730.36 368.94 730.36 401.30 z" />
        <path id="c00ee" class="Circle c s00 ee" d="M 847.56 401.30 C 847.56 433.67 821.32 459.90 788.96 459.90 C 756.59 459.90 730.36 433.67 730.36 401.30 C 730.36 368.94 756.59 342.70 788.96 342.70 C 821.32 342.70 847.56 368.94 847.56 401.30 z" />
        <path id="c02an" class="Circle c s02 an" d="M 847.56 299.80 C 847.56 364.53 795.08 417.00 730.36 417.00 C 665.63 417.00 613.15 364.53 613.15 299.80 C 613.15 235.07 665.63 182.60 730.36 182.60 C 795.08 182.60 847.56 235.07 847.56 299.80 z" />
        <path id="c02as" class="Circle c s02 as" d="M 847.56 502.80 C 847.56 567.53 795.08 620.01 730.36 620.01 C 665.63 620.01 613.15 567.53 613.15 502.80 C 613.15 438.07 665.63 385.60 730.36 385.60 C 795.08 385.60 847.56 438.07 847.56 502.80 z" />
        <path id="c04an" class="Circle c s04 an" d="M 865.69 367.47 C 865.69 442.21 805.10 502.80 730.36 502.80 C 655.61 502.80 595.02 442.21 595.02 367.47 C 595.02 292.73 655.61 232.13 730.36 232.13 C 805.10 232.13 865.69 292.73 865.69 367.47 z" />
        <path id="c04as" class="Circle c s04 as" d="M 865.69 435.14 C 865.69 509.88 805.10 570.47 730.36 570.47 C 655.61 570.47 595.02 509.88 595.02 435.14 C 595.02 360.39 655.61 299.80 730.36 299.80 C 805.10 299.80 865.69 360.39 865.69 435.14 z" />
        <path id="c05aw" class="Circle c s05 aw" d="M 837.50 401.30 C 837.50 492.84 763.29 567.05 671.75 567.05 C 580.21 567.05 506.00 492.84 506.00 401.30 C 506.00 309.76 580.21 235.55 671.75 235.55 C 763.29 235.55 837.50 309.76 837.50 401.30 z" />
        <path id="c05ae" class="Circle c s05 ae" d="M 954.71 401.30 C 954.71 492.84 880.50 567.05 788.96 567.05 C 697.42 567.05 623.21 492.84 623.21 401.30 C 623.21 309.76 697.42 235.55 788.96 235.55 C 880.50 235.55 954.71 309.76 954.71 401.30 z" />
        <path id="c05c" class="Circle c s05 c" d="M 813.23 401.30 C 813.23 447.07 776.13 484.18 730.36 484.18 C 684.58 484.18 647.48 447.07 647.48 401.30 C 647.48 355.53 684.58 318.43 730.36 318.43 C 776.13 318.43 813.23 355.53 813.23 401.30 z" />
        <path id="c06an" class="Circle c s06 an" d="M 906.16 284.10 C 906.16 381.19 827.45 459.90 730.36 459.90 C 633.26 459.90 554.55 381.19 554.55 284.10 C 554.55 187.01 633.26 108.30 730.36 108.30 C 827.45 108.30 906.16 187.01 906.16 284.10 z" />
        <path id="c06as" class="Circle c s06 as" d="M 906.16 518.50 C 906.16 615.60 827.45 694.31 730.36 694.31 C 633.26 694.31 554.55 615.60 554.55 518.50 C 554.55 421.41 633.26 342.70 730.36 342.70 C 827.45 342.70 906.16 421.41 906.16 518.50 z" />
        <path id="c010" class="Circle c s010 " d="M 954.71 342.70 C 954.71 434.24 880.50 508.45 788.96 508.45 C 697.42 508.45 623.21 434.24 623.21 342.70 C 623.21 251.16 697.42 176.95 788.96 176.95 C 880.50 176.95 954.71 251.16 954.71 342.70 z" />
    </g>
    <g id="Sectors">
        <path id="r00b" class="Segment r s00 b" d="M 788.96 401.30 L 554.55 401.30" />
        <path id="r00a" class="Segment r s00 a" d="M 671.75 401.30 L 906.16 401.30" />
        <path id="r06as" class="Segment r s06 as" d="M 730.36 518.50 L 906.16 518.50" />
        <path id="r06an" class="Segment r s06 an" d="M 730.36 284.10 L 906.16 284.10" />
        <path id="r05aw" class="Segment r s05 aw" d="M 671.75 401.30 L 788.96 284.10" />
        <path id="r05ae" class="Segment r s05 ae" d="M 788.96 401.30 L 671.75 518.50" />
        <path id="r04as" class="Segment r s04 as" d="M 730.36 435.14 L 613.15 502.80" />
        <path id="r04an" class="Segment r s04 an" d="M 730.36 367.47 L 847.56 299.80" />
        <path id="r03a" class="Segment r s03 a" d="M 730.36 401.30 L 788.96 284.10" />
        <path id="s03a" class="Sector s s03 a" d="M 861.39 401.30 C 861.39 351.67 833.35 306.30 788.96 284.10 L 730.36 401.30 z" />
        <path id="s04an_2" class="Sector s s04 an_2" d="M 861.39 401.30 C 870.26 366.96 865.29 330.52 847.56 299.80 L 730.36 367.47 z" />
        <path id="s04an" class="Sector s s04 an" d="M 599.32 401.30 C 590.45 435.64 595.42 472.09 613.15 502.80 L 730.36 435.14 z" />
        <path id="s05an" class="Sector s s05 an" d="M 825.17 338.57 C 816.84 318.19 804.53 299.67 788.96 284.10 L 671.75 401.30 z" />
        <path id="s05as" class="Sector s s05 as" d="M 635.54 464.03 C 643.87 484.42 656.18 502.93 671.75 518.50 L 788.96 401.30 z" />
        <path id="s004a" class="Sector s s004 a" d="M 554.55 284.10 C 554.55 327.34 570.49 369.07 599.32 401.30 L 730.36 284.10 z" />
        <path id="s004b" class="Sector s s004 b" d="M 906.16 518.50 C 906.16 475.26 890.22 433.53 861.39 401.30 L 730.36 518.50 z" />
        <path id="s05c" class="Sector s s05 c" d="M 861.39 401.30 C 890.22 369.07 906.16 327.34 906.16 284.10 L 730.36 284.10 z" />
    </g>
    <g id="Graphics">
        <path id="Q5" class="Segment Q s5 " d="M 671.75 284.10 L 788.96 518.50" />
        <path id="Q3" class="Segment Q s3 " d="M 730.36 299.80 L 730.36 502.80" />
        <path id="Q1" class="Segment Q s1 " d="M 671.75 401.30 L 788.96 401.30" />
        <path id="y4n" class="Quadrilateral y s4 n" d="M 671.75 284.10 L 788.96 284.10 L 788.96 401.30 L 671.75 401.30 z" />
        <path id="y4s" class="Quadrilateral y s4 s" d="M 671.75 401.30 L 788.96 401.30 L 788.96 518.50 L 671.75 518.50 z" />
        <path id="y4dn" class="Quadrilateral y s05 dn" d="M 730.36 342.70 L 554.55 518.50 L 730.36 694.31 L 906.16 518.50 z" />
        <path id="y4ds" class="Quadrilateral y s05 ds" d="M 730.36 459.90 L 554.55 284.10 L 730.36 108.30 L 906.16 284.10 z" />
        <path id="Q2" class="Segment Q s2 " d="M 671.75 401.30 L 788.96 284.10" />
        <path id="y3n" class="Triangle y s04 n" d="M 613.15 299.80 L 847.56 299.80 L 730.36 502.80 z" />
        <path id="y3s" class="Triangle y s04 s" d="M 730.36 299.80 L 613.15 502.80 L 847.56 502.80 z" />
    </g>
    <g id="Section">
        <path id="g002b" class="Segment g s002 b" d="M 671.75 401.30 L 788.96 401.30" />
        <path id="g002a2" class="Segment g s002 a2" d="M 599.32 401.30 L 671.75 401.30" />
        <path id="g002a1" class="Segment g s002 a1" d="M 788.96 401.30 L 861.39 401.30" />
        <path id="g001b" class="Segment g s001 b" d="M 730.36 299.80 L 730.36 502.80" />
        <path id="g001a2" class="Segment g s001 a2" d="M 730.36 174.34 L 730.36 299.80" />
        <path id="g001a1" class="Segment g s001 a1" d="M 730.36 502.80 L 730.36 628.26" />
    </g>
    <g id="GoldenPoints" transform="translate(-4.9064951,0)">
        <circle id="g000w" class="Point g s000 w" cy="401.29999" cx="676.75" r="4" />
        <circle id="g000e" class="Point g s000 e" cx="793.96002" cy="401.29999" r="4" />
        <circle id="g001n" class="Point g s001 n" cx="735.35999" cy="299.79999" r="4" />
        <circle id="g001s" class="Point g s001 s" cx="735.35999" cy="502.79999" r="4" />
        <circle id="g002n" class="Point g s002 n" cx="735.35999" cy="174.34" r="4" />
        <circle id="g002s" class="Point g s002 s" cx="735.35999" cy="628.26001" r="4" />
        <circle id="g003e" class="Point g s003 e" cx="866.39001" cy="401.29999" r="4" />
        <circle id="g003w" class="Point g s003 w" cx="604.32001" cy="401.29999" r="4" />
        <circle id="g004e" class="Point g s004 e" cx="749.19" cy="401.29999" r="4" />
        <circle id="g004w" class="Point g s004 w" cx="721.52002" cy="401.29999" r="4" />
    </g>
    <g id="Points" transform="translate(-3.2709968,0)">
        <circle id="p002" class="Point p s002 " cx="733.35999" cy="401.29999" r="2" />
        <circle id="p003e" class="Point p s003 e" cx="909.15997" cy="401.29999" r="2" />
        <circle id="p003w" class="Point p s003 w" cx="557.54999" cy="401.29999" r="2" />
        <circle id="p005nw" class="Point p s005 nw" cx="674.75" cy="198.3" r="2" />
        <circle id="p005sw" class="Point p s005 sw" cx="674.75" cy="604.29999" r="2" />
        <circle id="p005ne" class="Point p s005 ne" cx="791.96002" cy="198.3" r="2" />
        <circle id="p005se" class="Point p s005 se" cx="791.96002" cy="604.29999" r="2" />
        <circle id="p006nw" class="Point p s006 nw" cx="674.75" cy="284.10001" r="2" />
        <circle id="p006sw" class="Point p s006 sw" cx="674.75" cy="518.5" r="2" />
        <circle id="p006ne" class="Point p s006 ne" cx="791.96002" cy="284.10001" r="2" />
        <circle id="p006se" class="Point p s006 se" cx="791.96002" cy="518.5" r="2" />
        <circle id="p007n" class="Point p s007 n" cx="674.75" cy="342.70001" r="2" />
        <circle id="p007s" class="Point p s007 s" cx="674.75" cy="459.89999" r="2" />
        <circle id="p008n" class="Point p s008 n" cx="791.96002" cy="342.70001" r="2" />
        <circle id="p008s" class="Point p s008 s" cx="791.96002" cy="459.89999" r="2" />
        <circle id="p009w" class="Point p s009 w" cx="616.15002" cy="299.79999" r="2" />
        <circle id="p009e" class="Point p s009 e" cx="850.56" cy="299.79999" r="2" />
        <circle id="p010w" class="Point p s010 w" cx="616.15002" cy="502.79999" r="2" />
        <circle id="p010e" class="Point p s010 e" cx="850.56" cy="502.79999" r="2" />
        <circle id="p011w" class="Point p s011 w" cx="498.95001" cy="299.79999" r="2" />
        <circle id="p011e" class="Point p s011 e" cx="967.76001" cy="299.79999" r="2" />
        <circle id="p012w" class="Point p s012 w" cx="498.95001" cy="502.79999" r="2" />
        <circle id="p012e" class="Point p s012 e" cx="967.76001" cy="502.79999" r="2" />
        <circle id="p013w" class="Point p s013 w" cx="557.54999" cy="198.3" r="2" />
        <circle id="p013e" class="Point p s013 e" cx="909.15997" cy="198.3" r="2" />
        <circle id="p014w" class="Point p s014 w" cx="557.54999" cy="604.29999" r="2" />
        <circle id="p014e" class="Point p s014 e" cx="909.15997" cy="604.29999" r="2" />
        <circle id="p015n" class="Point p s015 n" cx="733.35999" cy="367.47" r="2" />
        <circle id="p015s" class="Point p s015 s" cx="733.35999" cy="435.14001" r="2" />
        <circle id="p016w" class="Point p s016 w" cx="557.54999" cy="284.10001" r="2" />
        <circle id="p016e" class="Point p s016 e" cx="909.15997" cy="284.10001" r="2" />
        <circle id="p017w" class="Point p s017 w" cx="557.54999" cy="518.5" r="2" />
        <circle id="p017e" class="Point p s017 e" cx="909.15997" cy="518.5" r="2" />
        <circle id="p018n" class="Point p s018 n" cx="733.35999" cy="284.10001" r="2" />
        <circle id="p018s" class="Point p s018 s" cx="733.35999" cy="518.5" r="2" />
        <circle id="g005w_1" class="Point g s005 w_1" cx="640.53998" cy="464.03" r="2" />
        <circle id="g005w" class="Point g s005 w" cx="830.16998" cy="464.03" r="2" />
        <circle id="p021n" class="Point p s021 n" cx="733.35999" cy="108.3" r="2" />
        <circle id="p021s" class="Point p s021 s" cx="733.35999" cy="694.31" r="2" />
    </g>
    </svg>
