<?xml version="1.0" encoding="UTF-8" standalone="no"?>
<!-- Created with Inkscape (http://www.inkscape.org/) -->

<svg
    xmlns:dc="http://purl.org/dc/elements/1.1/"
    xmlns:cc="http://creativecommons.org/ns#"
    xmlns:rdf="http://www.w3.org/1999/02/22-rdf-syntax-ns#"
    xmlns:svg="http://www.w3.org/2000/svg"
    xmlns="http://www.w3.org/2000/svg"
    xmlns:sodipodi="http://sodipodi.sourceforge.net/DTD/sodipodi-0.dtd"
    xmlns:inkscape="http://www.inkscape.org/namespaces/inkscape"
    id="svg3611"
    version="1.1"
    inkscape:version="0.91 r13725"
    xml:space="preserve"
    width="628.40002"
    height="126.45"
    viewBox="0 0 628.40002 126.45"
    sodipodi:docname="Geometor Logo.ai.svg">
    <metadata id="metadata3617">
        <rdf:RDF>
            <cc:Work rdf:about="">
                <dc:format>image/svg+xml</dc:format><dc:type rdf:resource="http://purl.org/dc/dcmitype/StillImage"/>
                <dc:title></dc:title>
            </cc:Work>
        </rdf:RDF>
    </metadata>
    <defs id="defs3615">
        <clipPath clipPathUnits="userSpaceOnUse" id="clipPath3625"><path d="m 0,101.16 502.72,0 L 502.72,0 0,0 0,101.16 Z" id="path3627" inkscape:connector-curvature="0"/></clipPath>
        <clipPath clipPathUnits="userSpaceOnUse" id="clipPath3637"><path d="m 0,101.16 502.72,0 L 502.72,0 0,0 0,101.16 Z" id="path3639" inkscape:connector-curvature="0"/></clipPath>
        <clipPath clipPathUnits="userSpaceOnUse" id="clipPath3677"><path d="m 0,101.16 502.72,0 L 502.72,0 0,0 0,101.16 Z" id="path3679" inkscape:connector-curvature="0"/></clipPath>
        <clipPath clipPathUnits="userSpaceOnUse" id="clipPath3701"><path d="m 0,101.16 502.72,0 L 502.72,0 0,0 0,101.16 Z" id="path3703" inkscape:connector-curvature="0"/></clipPath>
    </defs><sodipodi:namedview
        pagecolor="#ffffff"
        bordercolor="#666666"
        borderopacity="1"
        objecttolerance="10"
        gridtolerance="10"
        guidetolerance="10"
        inkscape:pageopacity="0"
        inkscape:pageshadow="2"
        inkscape:window-width="1653"
        inkscape:window-height="764"
        id="namedview3613"
        showgrid="false"
        inkscape:zoom="0.50922977"
        inkscape:cx="88.368753"
        inkscape:cy="63.224998"
        inkscape:window-x="0"
        inkscape:window-y="0"
        inkscape:window-maximized="0"
        inkscape:current-layer="g3619"/>
    <g id="g3619" inkscape:groupmode="layer" inkscape:label="Geometor Logo" transform="matrix(1.25,0,0,-1.25,0,126.45)">
        <g id="g3621">
            <g id="g3623" clip-path="url(#clipPath3625)">
                <g id="g3629" transform="translate(435.0382,67.6856)"><path
                    d="M 0,0 20,0 C 20,-20 2.667,-20 0,-20 l 40,-20"
                    style="fill:none;stroke:#231f20;stroke-width:4;stroke-linecap:square;stroke-linejoin:miter;stroke-miterlimit:10;stroke-dasharray:none;stroke-opacity:1"
                    id="path3631"
                    inkscape:connector-curvature="0"/></g>
            </g>
        </g>
        <g id="g3633">
            <g id="g3635" clip-path="url(#clipPath3637)">
                <g id="g3641" transform="translate(411.4923,48.0078)"><path
                    d="m 0,0 c 0,-11.049 -8.957,-20.006 -20.006,-20.006 -11.05,0 -20.007,8.957 -20.007,20.006 0,11.049 8.957,20.007 20.007,20.007 C -8.957,20.007 0,11.049 0,0 Z"
                    style="fill:none;stroke:#231f20;stroke-width:4;stroke-linecap:butt;stroke-linejoin:miter;stroke-miterlimit:10;stroke-dasharray:none;stroke-opacity:1"
                    id="path3643"
                    inkscape:connector-curvature="0"/></g>
            </g>
        </g>
        <g id="g3645" transform="translate(317.9337,67.6856)">
          <path d="M 0,0 20.014,0 40,0"
            style="fill:none;stroke:#231f20;stroke-width:4;stroke-linecap:square;stroke-linejoin:miter;stroke-miterlimit:10;stroke-dasharray:none;stroke-opacity:1" id="path3647" inkscape:connector-curvature="0"/></g>
        <g id="g3649" transform="translate(337.9464,27.6856)"><path d="M 0,0 0.001,40" style="fill:none;stroke:#231f20;stroke-width:4;stroke-linecap:square;stroke-linejoin:miter;stroke-miterlimit:10;stroke-dasharray:none;stroke-opacity:1" id="path3651" inkscape:connector-curvature="0"/></g>
        <g id="g3653" transform="translate(257.9591,47.6856)"><path d="M 0,0 40,0" style="fill:none;stroke:#231f20;stroke-width:4;stroke-linecap:square;stroke-linejoin:miter;stroke-miterlimit:10;stroke-dasharray:none;stroke-opacity:1" id="path3655" inkscape:connector-curvature="0"/></g>
        <g id="g3657" transform="translate(257.946,67.6856)"><path d="M 0,0 40,0" style="fill:none;stroke:#231f20;stroke-width:4;stroke-linecap:square;stroke-linejoin:miter;stroke-miterlimit:10;stroke-dasharray:none;stroke-opacity:1" id="path3659" inkscape:connector-curvature="0"/></g>
        <g id="g3661" transform="translate(257.946,27.6856)"><path d="M 0,0 40,0" style="fill:none;stroke:#231f20;stroke-width:4;stroke-linecap:square;stroke-linejoin:miter;stroke-miterlimit:10;stroke-dasharray:none;stroke-opacity:1" id="path3663" inkscape:connector-curvature="0"/></g>
        <g id="g3665" transform="translate(197.9586,27.6856)"><path d="M 0,0 0,40 20,0" style="fill:none;stroke:#231f20;stroke-width:4;stroke-linecap:square;stroke-linejoin:miter;stroke-miterlimit:10;stroke-dasharray:none;stroke-opacity:1" id="path3667" inkscape:connector-curvature="0"/></g>
        <g id="g3669" transform="translate(237.9586,67.6856)"><path d="M 0,0 0,-40" style="fill:none;stroke:#231f20;stroke-width:4;stroke-linecap:square;stroke-linejoin:miter;stroke-miterlimit:10;stroke-dasharray:none;stroke-opacity:1" id="path3671" inkscape:connector-curvature="0"/></g>
        <g id="g3673">
            <g id="g3675" clip-path="url(#clipPath3677)">
                <g id="g3681" transform="translate(180.9718,48.0078)"><path
                    d="m 0,0 c 0,-11.049 -8.957,-20.006 -20.007,-20.006 -11.049,0 -20.006,8.957 -20.006,20.006 0,11.049 8.957,20.007 20.006,20.007 C -8.957,20.007 0,11.049 0,0 Z"
                    style="fill:none;stroke:#231f20;stroke-width:4;stroke-linecap:butt;stroke-linejoin:miter;stroke-miterlimit:10;stroke-dasharray:none;stroke-opacity:1"
                    id="path3683"
                    inkscape:connector-curvature="0"/></g>
            </g>
        </g>
        <g id="g3685" transform="translate(83.9982,47.6856)">
          <path d="M 0,0 40,0" style="fill:none;stroke:#231f20;stroke-width:4;stroke-linecap:square;stroke-linejoin:miter;stroke-miterlimit:10;stroke-dasharray:none;stroke-opacity:1" id="path3687" inkscape:connector-curvature="0"/>
        </g>
        <g id="g3689" transform="translate(83.9982,67.6856)"><path d="M 0,0 40,0" style="fill:none;stroke:#231f20;stroke-width:4;stroke-linecap:square;stroke-linejoin:miter;stroke-miterlimit:10;stroke-dasharray:none;stroke-opacity:1" id="path3691" inkscape:connector-curvature="0"/></g>
        <g id="g3693" transform="translate(83.985,27.6856)"><path d="M 0,0 40,0" style="fill:none;stroke:#231f20;stroke-width:4;stroke-linecap:square;stroke-linejoin:miter;stroke-miterlimit:10;stroke-dasharray:none;stroke-opacity:1" id="path3695" inkscape:connector-curvature="0"/></g>
        <g id="g3697">
            <g id="g3699" clip-path="url(#clipPath3701)">
                <g id="g3705" transform="translate(46.9982,47.6856)"><path
                    d="m 0,0 20,0 c 0,-11.046 -8.954,-20 -20,-20 -11.046,0 -20,8.954 -20,20 0,11.046 8.954,20 20,20"
                    style="fill:none;stroke:#231f20;stroke-width:4;stroke-linecap:butt;stroke-linejoin:miter;stroke-miterlimit:10;stroke-dasharray:none;stroke-opacity:1"
                    id="path3707"
                    inkscape:connector-curvature="0"/></g>
            </g>
        </g>
    </g>
</svg>
