<svg xmlns="http://www.w3.org/2000/svg" width="628.4" height="126.45" viewBox="0 0 628.40002 126.45">
    <defs>
        <style>
            .logo {
                fill: none;
                stroke: #C90;
                stroke-width: 4px;
                stroke-miterlimit: 10;
                stroke-linecap: square;
            }

        </style>

    </defs>
    <g transform="matrix(1.25 0 0 -1.25 0 126.45)">
        <g id="R">
            <path class="logo R" d="M435.038 67.686h20c0-20-17.333-20-20-20l40-20"/>
        </g>
        <g id="O2">
            <path class="logo O2" d="M411.492 48.008c0-11.05-8.957-20.006-20.006-20.006-11.05 0-20.007 8.957-20.007 20.006 0 11.05 8.956 20.007 20.006 20.007s20.006-8.958 20.006-20.007z"/>
        </g>
        <g id="T">
            <path class="logo T" d="M317.934 67.686h40"/>
            <path class="logo T" d="M337.946 27.686v40"/>
        </g>
        <g id="E2">
            <path class="logo E2" d="M257.96 47.686h40"/>
            <path class="logo E2" d="M257.946 67.686h40"/>
            <path class="logo E2" d="M257.946 27.686h40"/>
        </g>
        <g id="M">
            <path class="logo M" d="M197.96 27.686v40l20-40"/>
            <path class="logo M" d="M237.96 67.686v-40"/>
        </g>
        <g id="O">
            <path class="logo O" d="M180.972 48.008c0-11.05-8.957-20.006-20.007-20.006S140.96 36.96 140.96 48.008c0 11.05 8.956 20.007 20.005 20.007 11.05 0 20.007-8.958 20.007-20.007z"/>
        </g>
        <g id="E">
            <path class="logo E" d="M83.998 47.686h40"/>
            <path class="logo E" d="M83.998 67.686h40"/>
            <path class="logo E" d="M83.985 27.686h40"/>
        </g>
        <g id="G">
            <path class="logo G" d="M46.998 47.686h20c0-11.046-8.954-20-20-20s-20 8.954-20 20 8.954 20 20 20"/>
        </g>
    </g>
</svg>
